<svg width="1024" height="1024" viewBox="0 0 1024 1024" fill="none" xmlns="http://www.w3.org/2000/svg">
<path d="M214.777 253.622C145.944 322.47 145.944 434.49 214.777 503.339L512.36 800.98V876.095L177.241 540.909C132.405 496.064 110 437.279 110 378.494C110 319.709 132.405 260.924 177.241 216.078C222.076 171.207 280.851 148.797 339.622 148.797C398.397 148.797 457.169 171.207 502.005 216.078L512.36 226.407V265.862H476.735L474.823 263.977L464.47 253.622C431.129 220.274 386.795 201.901 339.622 201.901C292.478 201.901 248.144 220.274 214.777 253.622Z" fill="white"/>
<path d="M916.339 265.039C916.473 265.33 916.604 265.597 916.737 265.863C920.214 273.508 926.161 279.774 933.567 283.625C938.717 286.307 944.558 287.846 950.769 287.846C971.422 287.846 988.173 271.093 988.173 250.436C988.173 229.779 971.422 213.051 950.769 213.051C935.692 213.051 922.711 221.999 916.817 234.878L916.844 233.682L864.149 232.859C861.654 229.804 859.08 226.804 856.423 223.831C853.796 220.936 851.088 218.07 848.273 215.281C837.073 204.05 824.993 194.253 812.252 185.837C805.88 181.641 799.349 177.79 792.686 174.287C786.023 170.781 779.229 167.621 772.299 164.808C765.397 162.02 758.389 159.549 751.275 157.452C748.621 156.683 745.94 155.938 743.258 155.249C737.896 153.868 732.481 152.672 727.038 151.691C724.304 151.213 721.596 150.762 718.862 150.364C711.561 149.301 704.236 148.611 696.908 148.265C693.245 148.08 689.556 148 685.89 148C682.229 148 678.538 148.08 674.875 148.265C663.859 148.796 652.894 150.097 642.037 152.196C638.402 152.912 634.816 153.681 631.206 154.558C624.04 156.312 616.924 158.435 609.917 160.879C605.35 162.471 600.837 164.277 596.351 166.16C590.537 168.631 584.751 171.312 579.097 174.287C559.107 184.8 540.312 198.449 523.509 215.281L512.36 226.406V265.863H916.339V265.039ZM861.548 404.328H829.957C819.684 404.328 811.376 396.017 811.376 385.742C811.376 375.493 819.684 367.157 829.957 367.157H861.548C861.708 367.157 861.866 367.181 862.026 367.181C872.061 367.448 880.129 375.653 880.129 385.742C880.129 396.017 871.794 404.328 861.548 404.328ZM783.795 404.328H752.231C741.958 404.328 733.648 396.017 733.648 385.742C733.648 375.493 741.958 367.157 752.231 367.157H783.795C794.068 367.157 802.376 375.493 802.376 385.742C802.376 396.017 794.068 404.328 783.795 404.328ZM706.067 404.328H688.812C678.538 404.328 670.228 396.017 670.228 385.742C670.228 375.493 678.538 367.157 688.812 367.157H706.067C716.314 367.157 724.649 375.493 724.649 385.742C724.649 396.017 716.314 404.328 706.067 404.328ZM630.33 423.153C609.679 423.153 592.954 406.399 592.954 385.742C592.954 365.084 609.679 348.358 630.33 348.358C650.983 348.358 667.734 365.084 667.734 385.742C667.734 406.399 650.983 423.153 630.33 423.153ZM572.779 630.361H605.086C615.359 630.361 623.667 638.697 623.667 648.945C623.667 659.223 615.359 667.532 605.086 667.532H572.779C562.506 667.532 554.196 659.223 554.196 648.945C554.196 638.697 562.506 630.361 572.779 630.361ZM652.337 630.361H684.643C694.916 630.361 703.226 638.697 703.226 648.945C703.226 659.223 694.916 667.532 684.643 667.532H652.337C650.347 667.532 648.461 667.214 646.683 666.656C639.171 664.266 633.755 657.257 633.755 648.945C633.755 638.697 642.063 630.361 652.337 630.361ZM985.546 456.156C970.44 456.156 957.485 465.104 951.567 477.982L951.592 476.813L893.51 475.884C895.366 472.008 897.12 468.077 898.712 464.121C899.588 461.971 900.437 459.794 901.262 457.617C906.093 444.527 909.703 431.092 912.091 417.47C912.491 415.215 912.835 412.93 913.18 410.674C913.471 408.549 913.685 406.452 913.923 404.328H907.685C897.438 404.328 889.103 396.017 889.103 385.742C889.103 375.493 897.438 367.157 907.685 367.157H915.277C915.172 364.448 914.985 361.74 914.772 359.032C913.233 340.047 909.33 321.249 903.092 303.035H512.36V630.361H525.526C535.799 630.361 544.107 638.697 544.107 648.945C544.107 659.223 535.799 667.532 525.526 667.532H512.36V876.094L723.083 665.329C720.189 663.763 717.746 661.426 716.021 658.611C714.296 655.796 713.313 652.503 713.313 648.945C713.313 638.697 721.623 630.361 731.896 630.361H758.045L842.222 546.165H607.369C600.917 557.396 588.812 564.965 574.955 564.965C554.302 564.965 537.551 548.21 537.551 527.58C537.551 506.923 554.302 490.17 574.955 490.17C588.812 490.17 600.917 497.737 607.369 508.993H951.089V508.145C951.22 508.437 951.38 508.701 951.487 508.993C954.964 516.613 960.911 522.879 968.316 526.73C973.465 529.412 979.334 530.953 985.546 530.953C1006.17 530.953 1022.92 514.198 1022.92 493.568C1022.92 472.911 1006.17 456.156 985.546 456.156Z" fill="#FF4343"/>
</svg>
