<svg width="1024" height="1024" viewBox="0 0 1024 1024" fill="none" xmlns="http://www.w3.org/2000/svg">
<path d="M183.918 243.67C112.364 315.157 112.364 431.471 183.918 502.958L493.261 812.006V890L144.899 541.968C98.2903 495.404 75 434.366 75 373.328C75 312.29 98.2903 251.252 144.899 204.688C191.505 158.096 252.603 134.828 313.697 134.828C374.795 134.828 435.889 158.096 482.497 204.688L493.261 215.412V256.38H456.228L454.24 254.422L443.478 243.67C408.82 209.045 362.734 189.967 313.697 189.967C264.689 189.967 218.604 209.045 183.918 243.67Z" fill="white"/>
<path d="M913.206 255.524C913.344 255.827 913.481 256.104 913.619 256.38C917.234 264.318 923.416 270.825 931.114 274.823C936.468 277.608 942.539 279.206 948.996 279.206C970.466 279.206 987.879 261.811 987.879 240.362C987.879 218.913 970.466 201.544 948.996 201.544C933.323 201.544 919.829 210.835 913.703 224.207L913.73 222.965L858.953 222.111C856.36 218.939 853.683 215.824 850.922 212.737C848.19 209.731 845.376 206.755 842.45 203.86C830.807 192.198 818.249 182.025 805.005 173.287C798.381 168.93 791.592 164.931 784.666 161.295C777.74 157.654 770.677 154.373 763.474 151.452C756.298 148.557 749.014 145.992 741.618 143.815C738.859 143.016 736.072 142.243 733.285 141.527C727.711 140.093 722.081 138.851 716.424 137.833C713.581 137.336 710.767 136.867 707.924 136.454C700.335 135.351 692.72 134.635 685.103 134.275C681.294 134.083 677.46 134 673.65 134C669.843 134 666.007 134.083 662.199 134.275C650.747 134.827 639.35 136.177 628.063 138.357C624.284 139.1 620.557 139.899 616.804 140.809C609.355 142.63 601.958 144.835 594.673 147.372C589.927 149.026 585.235 150.9 580.572 152.856C574.528 155.421 568.513 158.206 562.636 161.295C541.855 172.211 522.318 186.382 504.851 203.86L493.262 215.411V256.38H913.206V255.524ZM856.249 400.152H823.41C812.73 400.152 804.094 391.522 804.094 380.853C804.094 370.212 812.73 361.556 823.41 361.556H856.249C856.415 361.556 856.579 361.582 856.746 361.582C867.177 361.859 875.564 370.378 875.564 380.853C875.564 391.522 866.9 400.152 856.249 400.152ZM775.424 400.152H742.612C731.933 400.152 723.295 391.522 723.295 380.853C723.295 370.212 731.933 361.556 742.612 361.556H775.424C786.103 361.556 794.739 370.212 794.739 380.853C794.739 391.522 786.103 400.152 775.424 400.152ZM694.624 400.152H676.686C666.007 400.152 657.369 391.522 657.369 380.853C657.369 370.212 666.007 361.556 676.686 361.556H694.624C705.276 361.556 713.94 370.212 713.94 380.853C713.94 391.522 705.276 400.152 694.624 400.152ZM615.893 419.699C594.426 419.699 577.04 402.302 577.04 380.853C577.04 359.404 594.426 342.037 615.893 342.037C637.362 342.037 654.776 359.404 654.776 380.853C654.776 402.302 637.362 419.699 615.893 419.699ZM556.068 634.847H589.651C600.331 634.847 608.967 643.503 608.967 654.145C608.967 664.816 600.331 673.444 589.651 673.444H556.068C545.389 673.444 536.75 664.816 536.75 654.145C536.75 643.503 545.389 634.847 556.068 634.847ZM638.77 634.847H672.353C683.032 634.847 691.671 643.503 691.671 654.145C691.671 664.816 683.032 673.444 672.353 673.444H638.77C636.701 673.444 634.742 673.114 632.893 672.534C625.084 670.052 619.454 662.775 619.454 654.145C619.454 643.503 628.091 634.847 638.77 634.847ZM985.147 453.966C969.444 453.966 955.978 463.257 949.826 476.629L949.851 475.415L889.474 474.45C891.404 470.426 893.227 466.344 894.882 462.236C895.792 460.004 896.675 457.743 897.532 455.483C902.554 441.891 906.307 427.941 908.79 413.798C909.205 411.456 909.564 409.083 909.922 406.742C910.225 404.535 910.446 402.357 910.694 400.152H904.209C893.558 400.152 884.894 391.522 884.894 380.853C884.894 370.212 893.558 361.556 904.209 361.556H912.101C911.992 358.744 911.798 355.932 911.577 353.12C909.977 333.407 905.919 313.888 899.435 294.977H493.262V634.847H506.948C517.627 634.847 526.263 643.503 526.263 654.145C526.263 664.816 517.627 673.444 506.948 673.444H493.262V889.999L712.313 671.156C709.304 669.53 706.764 667.104 704.971 664.181C703.177 661.258 702.156 657.839 702.156 654.145C702.156 643.503 710.794 634.847 721.473 634.847H748.655L836.159 547.425H592.025C585.318 559.086 572.735 566.945 558.33 566.945C536.861 566.945 519.448 549.549 519.448 528.127C519.448 506.679 536.861 489.284 558.33 489.284C572.735 489.284 585.318 497.141 592.025 508.828H949.329V507.948C949.465 508.251 949.632 508.526 949.743 508.828C953.357 516.74 959.539 523.247 967.237 527.245C972.589 530.03 978.69 531.63 985.147 531.63C1006.59 531.63 1024 514.233 1024 492.812C1024 471.363 1006.59 453.966 985.147 453.966Z" fill="white"/>
</svg>
